<svg width="61" height="63" viewBox="0 0 61 63" fill="none" xmlns="http://www.w3.org/2000/svg">
<path fill-rule="evenodd" clip-rule="evenodd" d="M30.5491 3.1002C27.4771 1.0522 24.0851 0.0281982 20.3731 0.0281982C16.6611 0.0281982 13.2477 1.0522 10.1331 3.1002C7.06107 5.1482 4.62907 7.94287 2.83707 11.4842C1.08774 14.9829 0.213074 18.8655 0.213074 23.1322C0.213074 27.3989 1.08774 31.3029 2.83707 34.8442C4.62907 38.3429 7.06107 41.1162 10.1331 43.1642C12.9614 45.0239 16.0359 46.0392 19.3568 46.2102V45.3701C15.3671 45.0972 12.2499 43.1886 10.0051 39.6442C7.57307 35.7615 6.35707 30.2575 6.35707 23.1322C6.35707 16.0069 7.57307 10.5029 10.0051 6.6202C12.4371 2.73753 15.8931 0.7962 20.3731 0.7962C24.8531 0.7962 28.3091 2.73753 30.7411 6.6202C31.9045 8.47761 32.7897 10.7061 33.3965 13.3056H38.6829C38.4296 12.6873 38.1503 12.0802 37.8451 11.4842C36.0957 7.94287 33.6637 5.1482 30.5491 3.1002Z" fill="#353535"/>
<path d="M21.0899 62.1138V61.0258L24.8019 60.7058C25.6126 60.6204 26.1459 60.3431 26.4019 59.8738C26.6579 59.3618 26.7859 58.4658 26.7859 57.1858V20.0658C26.7859 18.9991 26.6366 18.2524 26.3379 17.8258C26.0819 17.3564 25.5272 17.1004 24.6739 17.0578L21.0899 16.8018V15.6498H37.1539C40.8659 15.6498 43.9166 16.0551 46.3059 16.8658C48.7379 17.6338 50.5299 18.8071 51.6819 20.3858C52.8766 21.9644 53.4739 23.9484 53.4739 26.3378C53.4739 28.2151 53.0472 29.9004 52.1939 31.3938C51.3832 32.8444 50.2739 34.0818 48.8659 35.1058C47.4579 36.0871 45.8366 36.7911 44.0019 37.2178V37.5378C47.8846 37.8791 50.8499 39.0098 52.8979 40.9298C54.9886 42.8071 56.0339 45.4098 56.0339 48.7378C56.0339 51.6391 55.3086 54.0924 53.8579 56.0978C52.4072 58.0604 50.2952 59.5538 47.5219 60.5778C44.7912 61.6018 41.4632 62.1138 37.5379 62.1138H21.0899ZM37.4099 60.7058C39.9699 60.7058 42.1246 60.2791 43.8739 59.4258C45.6232 58.5724 46.9459 57.3138 47.8419 55.6498C48.7379 53.9431 49.1859 51.7884 49.1859 49.1858C49.1859 46.6258 48.7379 44.5778 47.8419 43.0418C46.9886 41.4631 45.7086 40.3324 44.0019 39.6498C42.2952 38.9244 40.1832 38.5618 37.6659 38.5618C35.7032 38.5618 34.1886 38.6471 33.1219 38.8178V60.3858C33.5912 60.4711 34.2312 60.5564 35.0419 60.6418C35.8526 60.6844 36.6419 60.7058 37.4099 60.7058ZM36.3859 37.2178C38.4339 37.2178 40.2046 36.8338 41.6979 36.0658C43.2339 35.2978 44.4286 34.1244 45.2819 32.5458C46.1779 30.9671 46.6259 28.9404 46.6259 26.4658C46.6259 24.0338 46.2419 22.1351 45.4739 20.7698C44.7486 19.4044 43.6392 18.4444 42.1459 17.8898C40.6952 17.3351 38.8392 17.0578 36.5779 17.0578H33.1219V37.0898C33.5486 37.1324 34.0179 37.1751 34.5299 37.2178C35.0846 37.2178 35.7032 37.2178 36.3859 37.2178Z" fill="#353535"/>
</svg>
