<svg width="60" height="60" viewBox="0 0 60 60" fill="none" xmlns="http://www.w3.org/2000/svg">
<path d="M59.5 30C59.5 46.2923 46.2923 59.5 30 59.5C13.7076 59.5 0.5 46.2923 0.5 30C0.5 13.7076 13.7076 0.5 30 0.5C46.2923 0.5 59.5 13.7076 59.5 30Z" fill="#F5F5F5" stroke="#353535"/>
<path d="M30.3061 23.4313C30.7811 23.4313 31.2562 23.6063 31.6312 23.9813L40.4562 32.8063C41.1812 33.5313 41.1812 34.7313 40.4562 35.4563C39.7313 36.1812 38.5312 36.1812 37.8062 35.4563L30.3061 27.9563L22.8061 35.4563C22.0811 36.1812 20.8812 36.1812 20.1562 35.4563C19.4312 34.7313 19.4312 33.5313 20.1562 32.8063L28.9811 23.9813C29.3561 23.6063 29.8311 23.4313 30.3061 23.4313Z" fill="#353535"/>
</svg>
