<svg width="60" height="60" viewBox="0 0 60 60" fill="none" xmlns="http://www.w3.org/2000/svg">
<path d="M30 60C46.5684 60 60 46.5684 60 30C60 13.4314 46.5684 0 30 0C13.4314 0 0 13.4314 0 30C0 46.5684 13.4314 60 30 60Z" fill="#F5F5F5"/>
<path d="M29.6939 36.5687C29.2189 36.5687 28.7438 36.3937 28.3688 36.0187L19.5438 27.1937C18.8188 26.4687 18.8188 25.2687 19.5438 24.5437C20.2687 23.8188 21.4688 23.8188 22.1938 24.5437L29.6939 32.0437L37.1939 24.5437C37.9189 23.8188 39.1188 23.8188 39.8438 24.5437C40.5688 25.2687 40.5688 26.4687 39.8438 27.1937L31.0189 36.0187C30.6439 36.3937 30.1689 36.5687 29.6939 36.5687Z" fill="#353535"/>
</svg>
