<svg width="60" height="60" viewBox="0 0 60 60" fill="none" xmlns="http://www.w3.org/2000/svg">
<path d="M30 0C13.4316 0 0 13.4316 0 30C0 46.5686 13.4316 60 30 60C46.5686 60 60 46.5686 60 30C60 13.4316 46.5686 0 30 0Z" fill="#353535"/>
<path d="M36.5904 29.7156C36.5904 30.1906 36.4154 30.6656 36.0404 31.0406L27.2154 39.8657C26.4904 40.5907 25.2904 40.5907 24.5654 39.8657C23.8405 39.1407 23.8405 37.9407 24.5654 37.2157L32.0654 29.7156L24.5654 22.2156C23.8405 21.4906 23.8405 20.2906 24.5654 19.5656C25.2904 18.8406 26.4904 18.8406 27.2154 19.5656L36.0404 28.3906C36.4154 28.7656 36.5904 29.2406 36.5904 29.7156Z" fill="#F5F5F5"/>
</svg>
