<svg width="60" height="60" viewBox="0 0 60 60" fill="none" xmlns="http://www.w3.org/2000/svg">
<path d="M30 60C46.5684 60 60 46.5684 60 30C60 13.4314 46.5684 0 30 0C13.4314 0 0 13.4314 0 30C0 46.5684 13.4314 60 30 60Z" fill="#F5F5F5"/>
<path d="M23.4096 30.2844C23.4096 29.8094 23.5846 29.3344 23.9596 28.9594L32.7846 20.1343C33.5096 19.4093 34.7096 19.4093 35.4346 20.1343C36.1595 20.8593 36.1595 22.0593 35.4346 22.7843L27.9346 30.2844L35.4346 37.7844C36.1595 38.5094 36.1595 39.7094 35.4346 40.4344C34.7096 41.1594 33.5096 41.1594 32.7846 40.4344L23.9596 31.6094C23.5846 31.2344 23.4096 30.7594 23.4096 30.2844Z" fill="#353535"/>
</svg>
