<svg width="27" height="30" viewBox="0 0 27 30" fill="none" xmlns="http://www.w3.org/2000/svg">
<path d="M14.6585 1.4844C13.1741 0.494801 11.535 0 9.74139 0C7.94774 0 6.2984 0.494801 4.79338 1.4844C3.30898 2.474 2.13383 3.8244 1.26793 5.53558C0.422642 7.22615 0 9.10227 0 11.1639C0 13.2256 0.422642 15.112 1.26793 16.8232C2.13383 18.5138 3.30898 19.8539 4.79338 20.8435C6.16002 21.7421 7.64566 22.2327 9.2503 22.3153V21.9094C7.32248 21.7775 5.81623 20.8553 4.73153 19.1426C3.55638 17.2665 2.9688 14.6069 2.9688 11.1639C2.9688 7.72095 3.55638 5.0614 4.73153 3.18528C5.90668 1.30916 7.57664 0.371101 9.74139 0.371101C11.9061 0.371101 13.5761 1.30916 14.7512 3.18528C15.3134 4.08279 15.7411 5.15959 16.0344 6.41569H18.5887C18.4664 6.11693 18.3314 5.82357 18.1839 5.53558C17.3386 3.8244 16.1635 2.474 14.6585 1.4844Z" fill="black"/>
<path d="M10.0878 30V29.4743L11.8814 29.3196C12.2731 29.2784 12.5308 29.1444 12.6545 28.9176C12.7782 28.6702 12.8401 28.2373 12.8401 27.6188V9.68225C12.8401 9.16683 12.7679 8.80604 12.6236 8.59987C12.4999 8.37309 12.2319 8.24939 11.8196 8.22877L10.0878 8.10507V7.54842H17.85C19.6436 7.54842 21.1177 7.74428 22.2722 8.136C23.4474 8.5071 24.3133 9.07406 24.8699 9.83687C25.4472 10.5997 25.7358 11.5584 25.7358 12.7129C25.7358 13.62 25.5297 14.4344 25.1173 15.156C24.7256 15.8569 24.1896 16.4548 23.5092 16.9496C22.8289 17.4238 22.0454 17.764 21.1589 17.9702V18.1248C23.035 18.2897 24.4679 18.8361 25.4575 19.7638C26.4677 20.6709 26.9728 21.9286 26.9728 23.5367C26.9728 24.9386 26.6224 26.1241 25.9214 27.093C25.2204 28.0414 24.1999 28.763 22.8598 29.2578C21.5403 29.7526 19.9322 30 18.0355 30H10.0878ZM17.9737 29.3196C19.2107 29.3196 20.2518 29.1135 21.0971 28.7011C21.9424 28.2888 22.5815 27.6806 23.0144 26.8766C23.4474 26.0519 23.6639 25.0108 23.6639 23.7531C23.6639 22.5161 23.4474 21.5265 23.0144 20.7843C22.6021 20.0215 21.9836 19.4752 21.1589 19.1453C20.3343 18.7948 19.3137 18.6196 18.0974 18.6196C17.149 18.6196 16.4171 18.6608 15.9017 18.7433V29.165C16.1285 29.2063 16.4377 29.2475 16.8294 29.2887C17.2211 29.3093 17.6026 29.3196 17.9737 29.3196ZM17.4789 17.9702C18.4685 17.9702 19.324 17.7846 20.0456 17.4135C20.7878 17.0424 21.3651 16.4754 21.7774 15.7126C22.2104 14.9498 22.4269 13.9705 22.4269 12.7748C22.4269 11.5996 22.2413 10.6822 21.8702 10.0224C21.5197 9.36269 20.9837 8.89881 20.2621 8.6308C19.5611 8.36278 18.6643 8.22877 17.5716 8.22877H15.9017V17.9083C16.1078 17.9289 16.3346 17.9495 16.582 17.9702C16.85 17.9702 17.149 17.9702 17.4789 17.9702Z" fill="black"/>
</svg>
