<svg width="60" height="60" viewBox="0 0 60 60" fill="none" xmlns="http://www.w3.org/2000/svg">
<path d="M3 10H57C57.7956 10 58.5587 9.47321 59.1213 8.53553C59.6839 7.59785 60 6.32608 60 5C60 3.67392 59.6839 2.40215 59.1213 1.46447C58.5587 0.526785 57.7956 0 57 0H3C2.20435 0 1.44129 0.526785 0.87868 1.46447C0.31607 2.40215 0 3.67392 0 5C0 6.32608 0.31607 7.59785 0.87868 8.53553C1.44129 9.47321 2.20435 10 3 10ZM57 50H3C2.20435 50 1.44129 50.5268 0.87868 51.4645C0.31607 52.4021 0 53.6739 0 55C0 56.3261 0.31607 57.5979 0.87868 58.5355C1.44129 59.4732 2.20435 60 3 60H57C57.7956 60 58.5587 59.4732 59.1213 58.5355C59.6839 57.5979 60 56.3261 60 55C60 53.6739 59.6839 52.4021 59.1213 51.4645C58.5587 50.5268 57.7956 50 57 50ZM57 25H3C2.20435 25 1.44129 25.5268 0.87868 26.4645C0.31607 27.4021 0 28.6739 0 30C0 31.3261 0.31607 32.5979 0.87868 33.5355C1.44129 34.4732 2.20435 35 3 35H57C57.7956 35 58.5587 34.4732 59.1213 33.5355C59.6839 32.5979 60 31.3261 60 30C60 28.6739 59.6839 27.4021 59.1213 26.4645C58.5587 25.5268 57.7956 25 57 25Z" fill="#353535"/>
</svg>
