<svg width="60" height="60" viewBox="0 0 60 60" fill="none" xmlns="http://www.w3.org/2000/svg">
<path d="M41.3727 30L58.4301 12.9426C60.5233 10.8494 60.5233 7.45568 58.4301 5.36079L54.6392 1.56989C52.546 -0.523295 49.1523 -0.523295 47.0574 1.56989L30 18.6273L12.9426 1.56989C10.8494 -0.523295 7.45568 -0.523295 5.3608 1.56989L1.56989 5.36079C-0.523295 7.45398 -0.523295 10.8477 1.56989 12.9426L18.6273 30L1.56989 47.0574C-0.523295 49.1506 -0.523295 52.5443 1.56989 54.6392L5.3608 58.4301C7.45398 60.5233 10.8494 60.5233 12.9426 58.4301L30 41.3727L47.0574 58.4301C49.1506 60.5233 52.546 60.5233 54.6392 58.4301L58.4301 54.6392C60.5233 52.546 60.5233 49.1523 58.4301 47.0574L41.3727 30Z" fill="#353535"/>
</svg>
