<svg width="60" height="60" viewBox="0 0 60 60" fill="none" xmlns="http://www.w3.org/2000/svg">
<path d="M32.0033 0C47.2266 0 59.682 12.4554 59.682 27.6787V32.0033C59.682 47.2266 47.2265 59.682 32.0033 59.682H27.6787C12.4554 59.682 0 47.2266 0 32.0033V27.6787C0 12.4554 12.4554 0 27.6787 0H32.0033ZM30.3851 15.0005L30 15C26.7933 15 23.5866 15.106 23.5866 15.106C18.9029 15.106 15.106 18.9029 15.106 23.5866C15.106 23.5866 15.0086 26.3401 15.0005 29.2956L15 29.682C15 32.9911 15.106 36.4134 15.106 36.4134C15.106 41.0971 18.9029 44.894 23.5866 44.894C23.5866 44.894 26.5848 45 29.682 45C32.9911 45 36.5194 44.894 36.5194 44.894C41.2031 44.894 44.894 41.2032 44.894 36.5195C44.894 36.5195 45 33.1357 45 29.894L44.9981 29.1333C44.9837 26.2249 44.8939 23.4805 44.8939 23.4805C44.8939 18.7968 41.2031 15.106 36.5194 15.106C36.5194 15.106 33.4664 15.0083 30.3851 15.0005ZM30 17.6999C32.6296 17.6999 36.0011 17.7869 36.0011 17.7869C39.8417 17.7869 42.213 20.1582 42.213 23.9989C42.213 23.9989 42.3 27.3128 42.3 29.9129C42.3 32.5711 42.213 36.0009 42.213 36.0009C42.213 39.8416 39.8417 42.2129 36.0011 42.2129C36.0011 42.2129 33.0195 42.286 30.4325 42.2982L29.7392 42.2999C27.1995 42.2999 24.1049 42.2129 24.1049 42.2129C20.2643 42.2129 17.787 39.7355 17.787 35.895C17.787 35.895 17.7 32.4526 17.7 29.7392C17.7 27.1994 17.787 23.9989 17.787 23.9989C17.787 20.1582 20.2644 17.7869 24.1049 17.7869C24.1049 17.7869 27.3704 17.6999 30 17.6999ZM29.9999 22.3161C25.7563 22.3161 22.3161 25.7562 22.3161 29.9999C22.3161 34.2436 25.7563 37.6837 29.9999 37.6837C34.2436 37.6837 37.6838 34.2436 37.6838 29.9999C37.6838 25.7562 34.2436 22.3161 29.9999 22.3161ZM29.9999 24.9999C32.7614 24.9999 35 27.2385 35 29.9999C35 32.7613 32.7614 34.9999 29.9999 34.9999C27.2385 34.9999 24.9999 32.7613 24.9999 29.9999C24.9999 27.2385 27.2385 24.9999 29.9999 24.9999ZM38.0514 20.1838C37.0261 20.1838 36.1948 21.0191 36.1948 22.0496C36.1948 23.08 37.0261 23.9153 38.0514 23.9153C39.0768 23.9153 39.908 23.08 39.908 22.0496C39.908 21.0191 39.0768 20.1838 38.0514 20.1838Z" fill="#F5F5F5"/>
</svg>
