<svg width="61" height="60" viewBox="0 0 61 60" fill="none" xmlns="http://www.w3.org/2000/svg">
<path d="M26.6859 35.7773L36.5062 30.0117L26.6859 24.2461V35.7773Z" fill="#353535"/>
<path d="M30.682 0C14.1117 0 0.682007 13.4297 0.682007 30C0.682007 46.5703 14.1117 60 30.682 60C47.2523 60 60.682 46.5703 60.682 30C60.682 13.4297 47.2523 0 30.682 0ZM45.682 35.3672C45.682 40.5352 40.514 40.5352 40.514 40.5352H20.85C15.682 40.5352 15.682 35.3672 15.682 35.3672V24.6445C15.682 19.4766 20.85 19.4766 20.85 19.4766H40.514C45.682 19.4766 45.682 24.6445 45.682 24.6445V35.3672Z" fill="#353535"/>
</svg>
