<svg width="35" height="60" viewBox="0 0 35 60" fill="none" xmlns="http://www.w3.org/2000/svg">
<path d="M1.32076 1.32069C0.475126 2.16659 7.15953e-05 3.31371 7.15953e-05 4.50981C7.15953e-05 5.7059 0.475126 6.85303 1.32076 7.69892L23.6491 30.0272L1.32076 52.3555C0.499091 53.2063 0.0444314 54.3457 0.0547088 55.5284C0.0649862 56.7111 0.539378 57.8425 1.37571 58.6788C2.21204 59.5152 3.3434 59.9895 4.52611 59.9998C5.70882 60.0101 6.84825 59.5554 7.69899 58.7338L33.2164 33.2163C34.0621 32.3705 34.5371 31.2233 34.5371 30.0272C34.5371 28.8311 34.0621 27.684 33.2164 26.8381L7.69899 1.32069C6.8531 0.475054 5.70597 0 4.50988 0C3.31378 0 2.16666 0.475054 1.32076 1.32069Z" fill="#353535"/>
</svg>
