<svg width="36" height="60" viewBox="0 0 36 60" fill="none" xmlns="http://www.w3.org/2000/svg">
<path d="M1.85778 1.32069C1.01214 2.16659 0.537089 3.31371 0.537089 4.50981C0.537089 5.7059 1.01214 6.85303 1.85778 7.69892L24.1861 30.0272L1.85778 52.3555C1.03611 53.2063 0.581449 54.3457 0.591727 55.5284C0.602004 56.7111 1.0764 57.8425 1.91273 58.6788C2.74906 59.5152 3.88042 59.9895 5.06313 59.9998C6.24584 60.0101 7.38527 59.5554 8.23601 58.7338L33.7534 33.2163C34.5991 32.3705 35.0741 31.2233 35.0741 30.0272C35.0741 28.8311 34.5991 27.684 33.7534 26.8381L8.23601 1.32069C7.39011 0.475054 6.24299 0 5.0469 0C3.8508 0 2.70368 0.475054 1.85778 1.32069Z" fill="#F5F5F5"/>
</svg>
