<svg width="35" height="60" viewBox="0 0 35 60" fill="none" xmlns="http://www.w3.org/2000/svg">
<path d="M1.3207 1.32069C0.475065 2.16659 1.05602e-05 3.31371 1.05602e-05 4.50981C1.05602e-05 5.7059 0.475065 6.85303 1.3207 7.69892L23.649 30.0272L1.3207 52.3555C0.49903 53.2063 0.0443704 54.3457 0.0546478 55.5284C0.0649252 56.7111 0.539317 57.8425 1.37565 58.6788C2.21198 59.5152 3.34334 59.9895 4.52605 59.9998C5.70876 60.0101 6.84819 59.5554 7.69893 58.7338L33.2164 33.2163C34.062 32.3705 34.537 31.2233 34.537 30.0272C34.537 28.8311 34.062 27.684 33.2164 26.8381L7.69893 1.32069C6.85304 0.475054 5.70591 0 4.50982 0C3.31372 0 2.1666 0.475054 1.3207 1.32069Z" fill="#3C6E71"/>
</svg>
