<svg width="35" height="60" viewBox="0 0 35 60" fill="none" xmlns="http://www.w3.org/2000/svg">
<path d="M33.2163 58.6793C34.062 57.8334 34.537 56.6863 34.537 55.4902C34.537 54.2941 34.062 53.147 33.2163 52.3011L10.888 29.9728L33.2163 7.64446C34.038 6.79372 34.4927 5.65428 34.4824 4.47157C34.4721 3.28886 33.9977 2.15751 33.1614 1.32117C32.3251 0.484839 31.1937 0.0104516 30.011 0.00017415C28.8283 -0.0101033 27.6889 0.444557 26.8381 1.26623L1.32069 26.7837C0.475053 27.6295 0 28.7767 0 29.9728C0 31.1689 0.475053 32.316 1.32069 33.1619L26.8381 58.6793C27.684 59.5249 28.8311 60 30.0272 60C31.2233 60 32.3705 59.5249 33.2163 58.6793Z" fill="#353535"/>
</svg>
