<svg width="35" height="60" viewBox="0 0 35 60" fill="none" xmlns="http://www.w3.org/2000/svg">
<path d="M33.2657 58.6793C34.1113 57.8334 34.5864 56.6863 34.5864 55.4902C34.5864 54.2941 34.1113 53.147 33.2657 52.3011L10.9374 29.9728L33.2657 7.64446C34.0873 6.79372 34.542 5.65428 34.5317 4.47157C34.5214 3.28886 34.047 2.15751 33.2107 1.32117C32.3744 0.484839 31.243 0.0104516 30.0603 0.00017415C28.8776 -0.0101033 27.7382 0.444557 26.8874 1.26623L1.37001 26.7837C0.524369 27.6295 0.0493164 28.7767 0.0493164 29.9728C0.0493164 31.1689 0.524369 32.316 1.37001 33.1619L26.8874 58.6793C27.7333 59.5249 28.8805 60 30.0765 60C31.2726 60 32.4198 59.5249 33.2657 58.6793Z" fill="#3C6E71"/>
</svg>
