<svg width="35" height="60" viewBox="0 0 35 60" fill="none" xmlns="http://www.w3.org/2000/svg">
<path d="M33.241 58.6793C34.0866 57.8334 34.5617 56.6863 34.5617 55.4902C34.5617 54.2941 34.0866 53.147 33.241 52.3011L10.9127 29.9728L33.241 7.64446C34.0627 6.79372 34.5173 5.65428 34.5071 4.47157C34.4968 3.28886 34.0224 2.15751 33.1861 1.32117C32.3497 0.484839 31.2184 0.0104516 30.0357 0.00017415C28.8529 -0.0101033 27.7135 0.444557 26.8628 1.26623L1.34535 26.7837C0.499711 27.6295 0.0246582 28.7767 0.0246582 29.9728C0.0246582 31.1689 0.499711 32.316 1.34535 33.1619L26.8628 58.6793C27.7087 59.5249 28.8558 60 30.0519 60C31.248 60 32.3951 59.5249 33.241 58.6793Z" fill="#F5F5F5"/>
</svg>
